<?xml version="1.0" encoding="UTF-8" standalone="no"?>
<svg
   xmlns:dc="http://purl.org/dc/elements/1.1/"
   xmlns:cc="http://creativecommons.org/ns#"
   xmlns:rdf="http://www.w3.org/1999/02/22-rdf-syntax-ns#"
   xmlns:svg="http://www.w3.org/2000/svg"
   xmlns="http://www.w3.org/2000/svg"
   xmlns:sodipodi="http://sodipodi.sourceforge.net/DTD/sodipodi-0.dtd"
   xmlns:inkscape="http://www.inkscape.org/namespaces/inkscape"
   version="1.1"
   width="24"
   height="24"
   viewBox="0 0 24 24"
   id="svg917"
   sodipodi:docname="developer-board.svg"
   inkscape:version="0.92.4 (5da689c313, 2019-01-14)">
  <metadata
     id="metadata923">
    <rdf:RDF>
      <cc:Work
         rdf:about="">
        <dc:format>image/svg+xml</dc:format>
        <dc:type
           rdf:resource="http://purl.org/dc/dcmitype/StillImage" />
      </cc:Work>
    </rdf:RDF>
  </metadata>
  <defs
     id="defs921" />
  <sodipodi:namedview
     pagecolor="#ffffff"
     bordercolor="#666666"
     borderopacity="1"
     objecttolerance="10"
     gridtolerance="10"
     guidetolerance="10"
     inkscape:pageopacity="0"
     inkscape:pageshadow="2"
     inkscape:window-width="1872"
     inkscape:window-height="1032"
     id="namedview919"
     showgrid="false"
     inkscape:zoom="24.306796"
     inkscape:cx="8.4123826"
     inkscape:cy="10.787328"
     inkscape:window-x="48"
     inkscape:window-y="48"
     inkscape:window-maximized="1"
     inkscape:current-layer="svg917" />
  <path
     d="M 21,5 C 21,3.8954305 20.104569,3 19,3 H 5 C 3.8954305,3 3,3.8954305 3,5 v 14 c 0,1.104569 0.8954305,2 2,2 h 14 c 1.104569,0 2,-0.895431 2,-2 m -2,0 H 5 V 5 H 19 V 19 M 7,13 h 5 v 4 H 7 v -4 m 6,-6 h 4 v 3 H 13 V 7 M 7,7 h 5 v 5 H 7 V 7 m 6,4 h 4 v 6 h -4 z"
     id="path915"
     style="fill:#ffffff"
     inkscape:connector-curvature="0"
     sodipodi:nodetypes="csssssscccccccccccccccccccccccccc" />
</svg>
